<?xml version="1.0" encoding="UTF-8" standalone="no"?>
<!-- Generator: Adobe Illustrator 16.0.0, SVG Export Plug-In . SVG Version: 6.00 Build 0)  -->

<svg
   xmlns:dc="http://purl.org/dc/elements/1.1/"
   xmlns:cc="http://creativecommons.org/ns#"
   xmlns:rdf="http://www.w3.org/1999/02/22-rdf-syntax-ns#"
   xmlns:svg="http://www.w3.org/2000/svg"
   xmlns="http://www.w3.org/2000/svg"
   xmlns:sodipodi="http://sodipodi.sourceforge.net/DTD/sodipodi-0.dtd"
   xmlns:inkscape="http://www.inkscape.org/namespaces/inkscape"
   version="1.1"
   id="GNIW_Favorit_1_1_"
   x="0px"
   y="0px"
   width="700"
   height="160"
   viewBox="0 0 699.99999 160"
   enable-background="new 0 0 841.919 595.2"
   xml:space="preserve"
   sodipodi:docname="GNIW_Logo.svg"
   inkscape:version="0.92.4 5da689c313, 2019-01-14"><metadata
   id="metadata129"><rdf:RDF><cc:Work
       rdf:about=""><dc:format>image/svg+xml</dc:format><dc:type
         rdf:resource="http://purl.org/dc/dcmitype/StillImage" /><dc:title></dc:title></cc:Work></rdf:RDF></metadata><defs
   id="defs127" /><sodipodi:namedview
   pagecolor="#ffffff"
   bordercolor="#666666"
   borderopacity="1"
   objecttolerance="10"
   gridtolerance="10"
   guidetolerance="10"
   inkscape:pageopacity="0"
   inkscape:pageshadow="2"
   inkscape:window-width="1920"
   inkscape:window-height="1051"
   id="namedview125"
   showgrid="false"
   inkscape:zoom="1.1214865"
   inkscape:cx="362.15792"
   inkscape:cy="52.778496"
   inkscape:window-x="0"
   inkscape:window-y="0"
   inkscape:window-maximized="1"
   inkscape:current-layer="GNIW_Favorit_1_1_" />
<g
   id="GNIW"
   transform="translate(-70.930977,-196.7725)">
	<g
   id="g10">
		<path
   d="m 146.444,273.55 c -4.444,1.515 -12.86,3.597 -21.276,3.597 -11.631,0 -20.046,-2.935 -25.909,-8.614 -5.862,-5.491 -9.078,-13.821 -8.983,-23.193 0.095,-21.205 15.508,-33.322 36.405,-33.322 8.227,0 14.562,1.609 17.682,3.124 l -3.026,11.549 c -3.499,-1.515 -7.848,-2.746 -14.846,-2.746 -12.009,0 -21.086,6.816 -21.086,20.637 0,13.159 8.227,20.921 20.046,20.921 3.31,0 5.957,-0.379 7.092,-0.947 v -13.348 h -9.834 v -11.265 h 23.734 v 33.607 z"
   id="path2"
   inkscape:connector-curvature="0" />
		<path
   d="M 157.691,276.484 V 212.68 h 16.832 l 13.238,23.382 c 3.782,6.722 7.565,14.673 10.401,21.868 h 0.284 c -0.945,-8.425 -1.229,-17.04 -1.229,-26.601 V 212.68 h 13.238 v 63.805 h -15.129 l -13.617,-24.613 c -3.782,-6.816 -7.943,-15.052 -11.063,-22.531 l -0.284,0.095 c 0.378,8.425 0.567,17.418 0.567,27.832 v 19.217 h -13.238 z"
   id="path4"
   inkscape:connector-curvature="0" />
		<path
   d="m 237.398,212.68 v 63.805 H 222.93 V 212.68 Z"
   id="path6"
   inkscape:connector-curvature="0" />
		<path
   d="m 260.184,276.484 -15.129,-63.805 h 15.413 l 4.822,26.317 c 1.418,7.573 2.742,15.81 3.783,22.247 h 0.189 c 1.04,-6.911 2.553,-14.579 4.161,-22.436 l 5.39,-26.128 h 15.318 l 5.106,26.885 c 1.418,7.479 2.458,14.294 3.404,21.395 h 0.189 c 0.945,-7.1 2.364,-14.579 3.688,-22.152 l 5.201,-26.128 h 14.657 l -16.453,63.805 H 294.32 l -5.39,-27.453 c -1.229,-6.437 -2.269,-12.401 -3.026,-19.69 h -0.189 c -1.135,7.195 -2.175,13.253 -3.688,19.69 l -6.052,27.453 z"
   id="path8"
   inkscape:connector-curvature="0" />
	</g>
</g>
<g
   id="Gesellschaft_für_Nachhaltige_Immobilienwirtschaft_Kopie_1_"
   transform="translate(-70.930977,-196.7725)">
	<g
   id="g37">
		<path
   d="m 394.533,240.581 c -1.769,0.659 -5.223,1.564 -8.924,1.564 -4.688,0 -8.225,-1.194 -10.856,-3.705 -2.467,-2.347 -3.906,-6.011 -3.865,-10.209 0,-8.769 6.25,-14.409 15.421,-14.409 3.413,0 6.086,0.7 7.361,1.317 l -1.11,4.076 c -1.521,-0.659 -3.372,-1.194 -6.292,-1.194 -5.922,0 -10.075,3.5 -10.075,9.963 0,6.298 3.866,10.045 9.623,10.045 1.81,0 3.167,-0.247 3.825,-0.576 v -6.917 h -4.894 v -3.993 h 9.787 v 14.038 z"
   id="path13"
   inkscape:connector-curvature="0" />
		<path
   d="m 403.334,233.253 c 0.124,3.623 2.961,5.187 6.168,5.187 2.344,0 4.03,-0.329 5.552,-0.906 l 0.74,3.5 c -1.727,0.7 -4.112,1.235 -6.991,1.235 -6.498,0 -10.322,-3.993 -10.322,-10.127 0,-5.558 3.372,-10.786 9.787,-10.786 6.497,0 8.636,5.352 8.636,9.757 0,0.947 -0.083,1.688 -0.165,2.141 h -13.405 z m 8.801,-3.54 c 0.041,-1.853 -0.781,-4.899 -4.153,-4.899 -3.125,0 -4.441,2.84 -4.647,4.899 z"
   id="path15"
   inkscape:connector-curvature="0" />
		<path
   d="m 420.731,237.206 c 1.151,0.7 3.331,1.441 5.141,1.441 2.221,0 3.207,-0.906 3.207,-2.223 0,-1.359 -0.822,-2.059 -3.289,-2.923 -3.908,-1.359 -5.552,-3.5 -5.511,-5.846 0,-3.541 2.919,-6.299 7.566,-6.299 2.221,0 4.154,0.577 5.305,1.194 l -0.986,3.582 c -0.863,-0.494 -2.467,-1.153 -4.236,-1.153 -1.809,0 -2.795,0.864 -2.795,2.1 0,1.276 0.945,1.894 3.494,2.799 3.619,1.317 5.305,3.17 5.346,6.134 0,3.623 -2.836,6.257 -8.141,6.257 -2.428,0 -4.606,-0.576 -6.087,-1.4 z"
   id="path17"
   inkscape:connector-curvature="0" />
		<path
   d="m 441.705,233.253 c 0.123,3.623 2.961,5.187 6.168,5.187 2.344,0 4.031,-0.329 5.553,-0.906 l 0.74,3.5 c -1.729,0.7 -4.113,1.235 -6.992,1.235 -6.496,0 -10.32,-3.993 -10.32,-10.127 0,-5.558 3.371,-10.786 9.787,-10.786 6.496,0 8.635,5.352 8.635,9.757 0,0.947 -0.082,1.688 -0.164,2.141 h -13.407 z m 8.8,-3.54 c 0.041,-1.853 -0.781,-4.899 -4.154,-4.899 -3.125,0 -4.441,2.84 -4.646,4.899 z"
   id="path19"
   inkscape:connector-curvature="0" />
		<path
   d="m 459.349,212.628 h 5.1 v 29.229 h -5.1 z"
   id="path21"
   inkscape:connector-curvature="0" />
		<path
   d="m 469.917,212.628 h 5.1 v 29.229 h -5.1 z"
   id="path23"
   inkscape:connector-curvature="0" />
		<path
   d="m 480.24,237.206 c 1.152,0.7 3.33,1.441 5.141,1.441 2.221,0 3.207,-0.906 3.207,-2.223 0,-1.359 -0.822,-2.059 -3.289,-2.923 -3.906,-1.359 -5.553,-3.5 -5.512,-5.846 0,-3.541 2.92,-6.299 7.566,-6.299 2.221,0 4.154,0.577 5.307,1.194 l -0.988,3.582 c -0.863,-0.494 -2.467,-1.153 -4.234,-1.153 -1.811,0 -2.797,0.864 -2.797,2.1 0,1.276 0.945,1.894 3.496,2.799 3.617,1.317 5.305,3.17 5.346,6.134 0,3.623 -2.838,6.257 -8.143,6.257 -2.426,0 -4.605,-0.576 -6.086,-1.4 z"
   id="path25"
   inkscape:connector-curvature="0" />
		<path
   d="m 512.357,241.24 c -1.068,0.494 -3.166,1.029 -5.674,1.029 -6.25,0 -10.322,-3.993 -10.322,-10.209 0,-6.011 4.113,-10.704 11.145,-10.704 1.85,0 3.742,0.412 4.893,0.947 l -0.904,3.787 c -0.822,-0.37 -2.014,-0.782 -3.824,-0.782 -3.865,0 -6.168,2.841 -6.127,6.505 0,4.117 2.674,6.463 6.127,6.463 1.77,0 3.002,-0.371 3.99,-0.782 z"
   id="path27"
   inkscape:connector-curvature="0" />
		<path
   d="m 516.101,212.628 h 5.1 v 11.939 h 0.082 c 0.617,-0.947 1.439,-1.729 2.51,-2.306 0.986,-0.576 2.178,-0.906 3.453,-0.906 3.414,0 6.99,2.265 6.99,8.687 v 11.815 h -5.057 v -11.239 c 0,-2.923 -1.07,-5.105 -3.865,-5.105 -1.975,0 -3.373,1.317 -3.908,2.841 -0.164,0.412 -0.205,0.947 -0.205,1.523 v 11.98 h -5.1 z"
   id="path29"
   inkscape:connector-curvature="0" />
		<path
   d="m 550.892,241.857 -0.328,-2.223 h -0.123 c -1.234,1.564 -3.332,2.676 -5.922,2.676 -4.029,0 -6.293,-2.923 -6.293,-5.969 0,-5.063 4.482,-7.616 11.885,-7.575 v -0.33 c 0,-1.317 -0.533,-3.499 -4.07,-3.499 -1.975,0 -4.029,0.617 -5.387,1.482 l -0.988,-3.293 c 1.48,-0.906 4.072,-1.771 7.238,-1.771 6.416,0 8.266,4.076 8.266,8.439 v 7.246 c 0,1.812 0.082,3.582 0.287,4.817 z m -0.658,-9.797 c -3.576,-0.083 -6.99,0.7 -6.99,3.746 0,1.976 1.275,2.882 2.879,2.882 2.016,0 3.496,-1.317 3.947,-2.758 0.123,-0.371 0.164,-0.782 0.164,-1.111 z"
   id="path31"
   inkscape:connector-curvature="0" />
		<path
   d="m 561.093,241.857 v -16.261 h -2.713 v -3.788 h 2.713 v -0.865 c 0,-2.593 0.699,-5.187 2.426,-6.834 1.48,-1.399 3.496,-1.935 5.223,-1.935 1.357,0 2.428,0.206 3.25,0.494 l -0.371,3.911 c -0.535,-0.206 -1.234,-0.371 -2.139,-0.371 -2.508,0 -3.371,2.1 -3.371,4.57 v 1.029 h 4.4 v 3.788 h -4.359 v 16.261 h -5.059 z"
   id="path33"
   inkscape:connector-curvature="0" />
		<path
   d="m 579.968,216.086 v 5.723 h 4.811 v 3.788 h -4.811 v 8.851 c 0,2.429 0.658,3.705 2.592,3.705 0.863,0 1.521,-0.124 1.973,-0.247 l 0.082,3.87 c -0.74,0.289 -2.055,0.494 -3.66,0.494 -1.85,0 -3.412,-0.618 -4.357,-1.646 -1.07,-1.153 -1.562,-2.964 -1.562,-5.599 v -9.427 h -2.879 v -3.788 h 2.879 v -4.529 z"
   id="path35"
   inkscape:connector-curvature="0" />
	</g>
	<path
   d="m 372.696,291.584 v -16.261 h -2.714 v -3.788 h 2.714 v -0.865 c 0,-2.593 0.699,-5.187 2.426,-6.834 1.48,-1.399 3.496,-1.935 5.223,-1.935 1.357,0 2.426,0.206 3.249,0.494 l -0.37,3.911 c -0.534,-0.206 -1.233,-0.371 -2.138,-0.371 -2.508,0 -3.372,2.1 -3.372,4.57 v 1.029 h 4.4 v 3.788 h -4.359 v 16.261 h -5.059 z"
   id="path39"
   inkscape:connector-curvature="0" />
	<path
   d="m 403.169,285.574 c 0,2.388 0.082,4.364 0.165,6.011 h -4.441 l -0.247,-3.046 h -0.083 c -0.863,1.441 -2.837,3.499 -6.415,3.499 -3.66,0 -6.991,-2.182 -6.991,-8.728 v -11.774 h 5.058 v 10.91 c 0,3.334 1.069,5.475 3.742,5.475 2.015,0 3.331,-1.441 3.865,-2.717 0.165,-0.453 0.288,-0.988 0.288,-1.564 v -12.104 h 5.058 v 14.038 z m -15.462,-19.678 c 0,-1.441 1.11,-2.552 2.59,-2.552 1.357,0 2.426,1.07 2.426,2.552 0,1.358 -1.028,2.511 -2.467,2.511 -1.48,0 -2.549,-1.153 -2.549,-2.511 z m 8.224,0 c 0,-1.441 1.069,-2.552 2.509,-2.552 1.439,0 2.467,1.07 2.467,2.552 0,1.358 -1.028,2.511 -2.467,2.511 -1.481,0 -2.509,-1.153 -2.509,-2.511 z"
   id="path41"
   inkscape:connector-curvature="0" />
	<path
   d="m 408.64,277.999 c 0,-2.717 -0.041,-4.652 -0.164,-6.463 h 4.4 l 0.165,3.829 h 0.165 c 0.987,-2.841 3.331,-4.282 5.469,-4.282 0.493,0 0.781,0.042 1.192,0.124 v 4.776 c -0.411,-0.083 -0.863,-0.165 -1.48,-0.165 -2.426,0 -4.071,1.564 -4.523,3.829 -0.082,0.453 -0.165,0.988 -0.165,1.564 v 10.375 h -5.058 v -13.587 z"
   id="path43"
   inkscape:connector-curvature="0" />
	<path
   d="m 432,291.584 v -27.748 h 5.756 l 7.156,11.898 c 1.85,3.087 3.453,6.299 4.729,9.304 h 0.082 c -0.328,-3.705 -0.451,-7.287 -0.451,-11.527 v -9.675 h 4.688 v 27.748 h -5.223 l -7.238,-12.186 c -1.768,-3.047 -3.619,-6.464 -4.975,-9.592 l -0.125,0.041 c 0.207,3.582 0.248,7.246 0.248,11.815 v 9.921 H 432 Z"
   id="path45"
   inkscape:connector-curvature="0" />
	<path
   d="m 470.861,291.584 -0.328,-2.223 h -0.123 c -1.234,1.564 -3.332,2.676 -5.922,2.676 -4.029,0 -6.293,-2.923 -6.293,-5.969 0,-5.063 4.482,-7.616 11.885,-7.575 v -0.33 c 0,-1.317 -0.533,-3.499 -4.07,-3.499 -1.975,0 -4.029,0.617 -5.387,1.482 l -0.988,-3.293 c 1.48,-0.906 4.072,-1.771 7.238,-1.771 6.416,0 8.266,4.076 8.266,8.439 v 7.246 c 0,1.812 0.082,3.582 0.287,4.817 z m -0.658,-9.797 c -3.576,-0.083 -6.99,0.7 -6.99,3.746 0,1.976 1.275,2.882 2.879,2.882 2.016,0 3.496,-1.317 3.947,-2.758 0.123,-0.371 0.164,-0.782 0.164,-1.111 z"
   id="path47"
   inkscape:connector-curvature="0" />
	<path
   d="m 495.208,290.967 c -1.068,0.494 -3.166,1.029 -5.676,1.029 -6.25,0 -10.32,-3.993 -10.32,-10.209 0,-6.011 4.111,-10.704 11.143,-10.704 1.852,0 3.742,0.412 4.895,0.947 l -0.904,3.787 c -0.822,-0.37 -2.016,-0.782 -3.824,-0.782 -3.865,0 -6.17,2.841 -6.127,6.505 0,4.117 2.672,6.463 6.127,6.463 1.768,0 3.002,-0.371 3.988,-0.782 z"
   id="path49"
   inkscape:connector-curvature="0" />
	<path
   d="m 498.953,262.355 h 5.1 v 11.939 h 0.082 c 0.617,-0.947 1.439,-1.729 2.508,-2.306 0.986,-0.576 2.18,-0.906 3.455,-0.906 3.412,0 6.99,2.265 6.99,8.687 v 11.815 h -5.059 v -11.239 c 0,-2.923 -1.068,-5.105 -3.865,-5.105 -1.975,0 -3.371,1.317 -3.906,2.841 -0.164,0.412 -0.205,0.947 -0.205,1.523 v 11.98 h -5.1 z"
   id="path51"
   inkscape:connector-curvature="0" />
	<path
   d="m 522.476,262.355 h 5.1 v 11.939 h 0.082 c 0.617,-0.947 1.439,-1.729 2.508,-2.306 0.986,-0.576 2.18,-0.906 3.455,-0.906 3.412,0 6.99,2.265 6.99,8.687 v 11.815 h -5.059 v -11.239 c 0,-2.923 -1.068,-5.105 -3.865,-5.105 -1.975,0 -3.371,1.317 -3.906,2.841 -0.164,0.412 -0.205,0.947 -0.205,1.523 v 11.98 h -5.1 z"
   id="path53"
   inkscape:connector-curvature="0" />
	<path
   d="m 557.267,291.584 -0.328,-2.223 h -0.123 c -1.234,1.564 -3.332,2.676 -5.922,2.676 -4.029,0 -6.293,-2.923 -6.293,-5.969 0,-5.063 4.482,-7.616 11.885,-7.575 v -0.33 c 0,-1.317 -0.533,-3.499 -4.07,-3.499 -1.975,0 -4.029,0.617 -5.387,1.482 l -0.988,-3.293 c 1.48,-0.906 4.072,-1.771 7.238,-1.771 6.416,0 8.266,4.076 8.266,8.439 v 7.246 c 0,1.812 0.082,3.582 0.287,4.817 z m -0.658,-9.797 c -3.576,-0.083 -6.99,0.7 -6.99,3.746 0,1.976 1.275,2.882 2.879,2.882 2.016,0 3.496,-1.317 3.947,-2.758 0.123,-0.371 0.164,-0.782 0.164,-1.111 z"
   id="path55"
   inkscape:connector-curvature="0" />
	<path
   d="m 566.892,262.355 h 5.1 v 29.229 h -5.1 z"
   id="path57"
   inkscape:connector-curvature="0" />
	<path
   d="m 583.259,265.813 v 5.723 h 4.811 v 3.788 h -4.811 v 8.851 c 0,2.429 0.658,3.705 2.592,3.705 0.863,0 1.521,-0.124 1.973,-0.247 l 0.082,3.87 c -0.74,0.289 -2.055,0.494 -3.66,0.494 -1.85,0 -3.412,-0.618 -4.357,-1.646 -1.07,-1.153 -1.562,-2.964 -1.562,-5.599 v -9.427 h -2.879 v -3.788 h 2.879 v -4.529 z"
   id="path59"
   inkscape:connector-curvature="0" />
	<path
   d="m 597.285,265.937 c 0,1.523 -1.111,2.717 -2.879,2.717 -1.688,0 -2.797,-1.194 -2.797,-2.717 0,-1.564 1.152,-2.758 2.838,-2.758 1.726,-10e-4 2.795,1.193 2.838,2.758 z m -5.389,25.647 v -20.049 h 5.1 v 20.049 z"
   id="path61"
   inkscape:connector-curvature="0" />
	<path
   d="m 620.724,271.536 c -0.082,1.358 -0.164,3.005 -0.164,5.764 v 11.362 c 0,4.199 -0.863,7.204 -2.961,9.098 -2.098,1.852 -4.977,2.43 -7.73,2.43 -2.551,0 -5.264,-0.535 -6.992,-1.605 l 1.111,-3.83 c 1.275,0.741 3.412,1.523 5.84,1.523 3.289,0 5.756,-1.729 5.756,-6.052 v -1.729 h -0.082 c -1.15,1.77 -3.207,2.964 -5.84,2.964 -4.975,0 -8.512,-4.117 -8.512,-9.798 0,-6.587 4.277,-10.581 9.088,-10.581 3.043,0 4.854,1.482 5.799,3.129 h 0.082 l 0.205,-2.676 h 4.4 z m -5.223,8.027 c 0,-0.453 -0.041,-0.947 -0.164,-1.359 -0.535,-1.853 -1.975,-3.252 -4.111,-3.252 -2.838,0 -4.936,2.47 -4.936,6.545 0,3.417 1.727,6.175 4.895,6.175 1.891,0 3.535,-1.235 4.111,-3.046 0.123,-0.535 0.205,-1.235 0.205,-1.812 z"
   id="path63"
   inkscape:connector-curvature="0" />
	<path
   d="m 629.568,282.98 c 0.123,3.623 2.961,5.187 6.168,5.187 2.344,0 4.031,-0.329 5.553,-0.906 l 0.74,3.5 c -1.729,0.7 -4.113,1.235 -6.992,1.235 -6.496,0 -10.32,-3.993 -10.32,-10.127 0,-5.558 3.371,-10.786 9.787,-10.786 6.496,0 8.635,5.352 8.635,9.757 0,0.947 -0.082,1.688 -0.164,2.141 h -13.407 z m 8.801,-3.54 c 0.041,-1.853 -0.781,-4.899 -4.154,-4.899 -3.125,0 -4.441,2.84 -4.646,4.899 z"
   id="path65"
   inkscape:connector-curvature="0" />
	<g
   id="g107">
		<path
   d="m 377.384,313.326 v 27.748 h -5.058 v -27.748 z"
   id="path67"
   inkscape:connector-curvature="0" />
		<path
   d="m 383.224,326.994 c 0,-2.305 -0.041,-4.24 -0.164,-5.969 h 4.359 l 0.206,2.963 h 0.124 c 0.987,-1.564 2.796,-3.416 6.168,-3.416 2.632,0 4.688,1.482 5.552,3.705 h 0.082 c 0.699,-1.111 1.521,-1.936 2.467,-2.512 1.11,-0.781 2.385,-1.193 4.03,-1.193 3.331,0 6.703,2.264 6.703,8.686 v 11.816 h -4.935 V 330 c 0,-3.336 -1.151,-5.311 -3.578,-5.311 -1.727,0 -3.002,1.234 -3.537,2.676 -0.123,0.494 -0.247,1.111 -0.247,1.688 v 12.021 h -4.935 v -11.609 c 0,-2.801 -1.11,-4.775 -3.455,-4.775 -1.892,0 -3.166,1.48 -3.619,2.881 -0.206,0.494 -0.288,1.07 -0.288,1.646 v 11.857 h -4.935 v -14.08 z"
   id="path69"
   inkscape:connector-curvature="0" />
		<path
   d="m 418.099,326.994 c 0,-2.305 -0.041,-4.24 -0.164,-5.969 h 4.359 l 0.205,2.963 h 0.123 c 0.986,-1.564 2.797,-3.416 6.168,-3.416 2.633,0 4.689,1.482 5.553,3.705 h 0.082 c 0.699,-1.111 1.521,-1.936 2.467,-2.512 1.111,-0.781 2.385,-1.193 4.029,-1.193 3.332,0 6.703,2.264 6.703,8.686 v 11.816 H 442.69 V 330 c 0,-3.336 -1.152,-5.311 -3.578,-5.311 -1.727,0 -3.002,1.234 -3.537,2.676 -0.123,0.494 -0.246,1.111 -0.246,1.688 v 12.021 h -4.936 v -11.609 c 0,-2.801 -1.109,-4.775 -3.453,-4.775 -1.893,0 -3.166,1.48 -3.619,2.881 -0.205,0.494 -0.287,1.07 -0.287,1.646 v 11.857 h -4.936 v -14.08 z"
   id="path71"
   inkscape:connector-curvature="0" />
		<path
   d="m 472.015,330.863 c 0,7.369 -5.182,10.664 -10.281,10.664 -5.676,0 -10.033,-3.912 -10.033,-10.334 0,-6.588 4.316,-10.621 10.361,-10.621 5.963,0 9.953,4.199 9.953,10.291 z m -15.092,0.207 c 0,3.869 1.891,6.793 4.975,6.793 2.879,0 4.895,-2.842 4.895,-6.875 0,-3.129 -1.398,-6.711 -4.854,-6.711 -3.576,0 -5.016,3.457 -5.016,6.793 z"
   id="path73"
   inkscape:connector-curvature="0" />
		<path
   d="m 476.005,341.074 c 0.082,-1.359 0.164,-3.582 0.164,-5.641 v -23.59 h 5.059 v 11.939 h 0.082 c 1.232,-1.936 3.412,-3.211 6.414,-3.211 4.895,0 8.389,4.076 8.348,10.168 0,7.205 -4.564,10.787 -9.088,10.787 -2.59,0 -4.893,-0.988 -6.332,-3.459 h -0.082 l -0.248,3.006 h -4.317 z m 5.223,-8.275 c 0,0.412 0.041,0.824 0.123,1.193 0.533,2.018 2.303,3.541 4.482,3.541 3.166,0 5.098,-2.553 5.098,-6.586 0,-3.541 -1.686,-6.424 -5.057,-6.424 -2.057,0 -3.906,1.482 -4.482,3.705 -0.082,0.371 -0.164,0.824 -0.164,1.318 z"
   id="path75"
   inkscape:connector-curvature="0" />
		<path
   d="m 505.617,315.426 c 0,1.523 -1.111,2.717 -2.879,2.717 -1.688,0 -2.797,-1.193 -2.797,-2.717 0,-1.564 1.152,-2.758 2.838,-2.758 1.726,0 2.795,1.193 2.838,2.758 z m -5.389,25.648 v -20.049 h 5.1 v 20.049 z"
   id="path77"
   inkscape:connector-curvature="0" />
		<path
   d="m 510.757,311.844 h 5.1 v 29.23 h -5.1 z"
   id="path79"
   inkscape:connector-curvature="0" />
		<path
   d="m 526.712,315.426 c 0,1.523 -1.109,2.717 -2.879,2.717 -1.686,0 -2.797,-1.193 -2.797,-2.717 0,-1.564 1.152,-2.758 2.838,-2.758 1.729,0 2.797,1.193 2.838,2.758 z m -5.386,25.648 v -20.049 h 5.1 v 20.049 z"
   id="path81"
   inkscape:connector-curvature="0" />
		<path
   d="m 535.431,332.469 c 0.123,3.623 2.961,5.188 6.168,5.188 2.344,0 4.031,-0.328 5.553,-0.904 l 0.74,3.498 c -1.729,0.701 -4.113,1.236 -6.992,1.236 -6.496,0 -10.32,-3.994 -10.32,-10.129 0,-5.557 3.371,-10.785 9.787,-10.785 6.496,0 8.635,5.352 8.635,9.756 0,0.947 -0.082,1.689 -0.164,2.141 h -13.407 z m 8.801,-3.539 c 0.041,-1.854 -0.781,-4.9 -4.154,-4.9 -3.125,0 -4.441,2.842 -4.646,4.9 z"
   id="path83"
   inkscape:connector-curvature="0" />
		<path
   d="m 553.074,326.994 c 0,-2.305 -0.041,-4.24 -0.164,-5.969 h 4.441 l 0.246,3.004 h 0.125 c 0.863,-1.564 3.043,-3.457 6.373,-3.457 3.496,0 7.113,2.264 7.113,8.604 v 11.898 h -5.057 v -11.322 c 0,-2.881 -1.07,-5.062 -3.824,-5.062 -2.016,0 -3.414,1.439 -3.949,2.963 -0.164,0.453 -0.205,1.07 -0.205,1.646 v 11.775 h -5.1 v -14.08 z"
   id="path85"
   inkscape:connector-curvature="0" />
		<path
   d="m 578.984,321.025 2.098,9.098 c 0.453,2.141 0.904,4.322 1.275,6.504 h 0.082 c 0.412,-2.182 1.068,-4.404 1.645,-6.463 l 2.592,-9.139 h 4.111 l 2.508,8.893 c 0.617,2.346 1.152,4.527 1.605,6.709 h 0.082 c 0.328,-2.182 0.781,-4.363 1.314,-6.709 l 2.221,-8.893 h 4.977 l -6.291,20.049 h -4.689 l -2.385,-8.152 c -0.617,-2.1 -1.068,-3.992 -1.521,-6.422 h -0.082 c -0.41,2.471 -0.945,4.447 -1.521,6.422 l -2.549,8.152 h -4.73 l -5.92,-20.049 z"
   id="path87"
   inkscape:connector-curvature="0" />
		<path
   d="m 612.132,315.426 c 0,1.523 -1.111,2.717 -2.879,2.717 -1.688,0 -2.797,-1.193 -2.797,-2.717 0,-1.564 1.152,-2.758 2.838,-2.758 1.727,0 2.795,1.193 2.838,2.758 z m -5.388,25.648 v -20.049 h 5.1 v 20.049 z"
   id="path89"
   inkscape:connector-curvature="0" />
		<path
   d="m 617.273,327.488 c 0,-2.717 -0.041,-4.652 -0.164,-6.463 h 4.398 l 0.166,3.828 h 0.164 c 0.986,-2.84 3.33,-4.281 5.469,-4.281 0.494,0 0.781,0.041 1.193,0.123 v 4.775 c -0.412,-0.082 -0.863,-0.164 -1.48,-0.164 -2.426,0 -4.072,1.564 -4.523,3.828 -0.082,0.453 -0.164,0.988 -0.164,1.564 v 10.375 h -5.059 z"
   id="path91"
   inkscape:connector-curvature="0" />
		<path
   d="m 638.658,315.303 v 5.723 h 4.811 v 3.787 h -4.811 v 8.852 c 0,2.428 0.656,3.705 2.59,3.705 0.863,0 1.521,-0.125 1.975,-0.248 l 0.082,3.871 c -0.74,0.287 -2.057,0.494 -3.66,0.494 -1.852,0 -3.414,-0.619 -4.359,-1.648 -1.068,-1.152 -1.562,-2.963 -1.562,-5.598 v -9.428 h -2.879 v -3.787 h 2.879 v -4.529 z"
   id="path93"
   inkscape:connector-curvature="0" />
		<path
   d="m 647.048,336.422 c 1.15,0.699 3.33,1.441 5.139,1.441 2.221,0 3.209,-0.906 3.209,-2.225 0,-1.357 -0.822,-2.057 -3.291,-2.922 -3.906,-1.359 -5.551,-3.5 -5.51,-5.846 0,-3.541 2.92,-6.299 7.566,-6.299 2.221,0 4.154,0.576 5.305,1.193 l -0.986,3.582 c -0.863,-0.494 -2.469,-1.152 -4.236,-1.152 -1.809,0 -2.797,0.863 -2.797,2.1 0,1.275 0.947,1.893 3.496,2.799 3.619,1.318 5.305,3.17 5.346,6.135 0,3.623 -2.838,6.258 -8.143,6.258 -2.426,0 -4.605,-0.578 -6.086,-1.4 z"
   id="path95"
   inkscape:connector-curvature="0" />
		<path
   d="m 679.166,340.457 c -1.068,0.494 -3.166,1.029 -5.676,1.029 -6.25,0 -10.32,-3.994 -10.32,-10.211 0,-6.01 4.111,-10.703 11.143,-10.703 1.852,0 3.742,0.412 4.895,0.947 l -0.904,3.787 c -0.822,-0.371 -2.016,-0.783 -3.824,-0.783 -3.865,0 -6.17,2.842 -6.127,6.506 0,4.115 2.672,6.463 6.127,6.463 1.768,0 3.002,-0.371 3.988,-0.783 z"
   id="path97"
   inkscape:connector-curvature="0" />
		<path
   d="m 682.91,311.844 h 5.1 v 11.939 h 0.082 c 0.617,-0.947 1.439,-1.729 2.508,-2.305 0.986,-0.578 2.18,-0.906 3.455,-0.906 3.412,0 6.99,2.264 6.99,8.686 v 11.816 h -5.059 v -11.24 c 0,-2.922 -1.068,-5.104 -3.865,-5.104 -1.975,0 -3.371,1.316 -3.906,2.84 -0.164,0.412 -0.205,0.947 -0.205,1.523 v 11.98 h -5.1 z"
   id="path99"
   inkscape:connector-curvature="0" />
		<path
   d="m 717.701,341.074 -0.33,-2.223 h -0.123 c -1.232,1.562 -3.33,2.676 -5.922,2.676 -4.029,0 -6.291,-2.924 -6.291,-5.971 0,-5.062 4.482,-7.615 11.885,-7.574 v -0.33 c 0,-1.316 -0.535,-3.498 -4.072,-3.498 -1.973,0 -4.029,0.617 -5.387,1.48 l -0.986,-3.293 c 1.48,-0.906 4.07,-1.77 7.238,-1.77 6.414,0 8.266,4.076 8.266,8.439 v 7.246 c 0,1.811 0.082,3.58 0.287,4.816 h -4.565 z m -0.659,-9.799 c -3.578,-0.082 -6.99,0.699 -6.99,3.746 0,1.977 1.273,2.883 2.877,2.883 2.016,0 3.496,-1.318 3.949,-2.76 0.123,-0.369 0.164,-0.781 0.164,-1.111 z"
   id="path101"
   inkscape:connector-curvature="0" />
		<path
   d="m 727.902,341.074 v -16.262 h -2.715 v -3.787 h 2.715 v -0.865 c 0,-2.594 0.699,-5.188 2.426,-6.834 1.48,-1.4 3.494,-1.936 5.223,-1.936 1.357,0 2.426,0.207 3.248,0.494 l -0.369,3.912 c -0.535,-0.207 -1.234,-0.371 -2.139,-0.371 -2.51,0 -3.373,2.1 -3.373,4.57 v 1.029 h 4.4 v 3.787 h -4.359 v 16.262 h -5.057 z"
   id="path103"
   inkscape:connector-curvature="0" />
		<path
   d="m 746.777,315.303 v 5.723 h 4.811 v 3.787 h -4.811 v 8.852 c 0,2.428 0.656,3.705 2.59,3.705 0.863,0 1.521,-0.125 1.975,-0.248 l 0.082,3.871 c -0.74,0.287 -2.057,0.494 -3.66,0.494 -1.852,0 -3.414,-0.619 -4.359,-1.648 -1.068,-1.152 -1.562,-2.963 -1.562,-5.598 v -9.428 h -2.879 v -3.787 h 2.879 v -4.529 z"
   id="path105"
   inkscape:connector-curvature="0" />
	</g>
</g>
<g
   id="g122"
   transform="translate(-70.930977,-196.7725)">
	<g
   id="g112">
		<rect
   x="344.45401"
   y="299.99301"
   width="7.553"
   height="41.063"
   id="rect110"
   style="fill:#087dff" />
	</g>
	<g
   id="g116">
		<rect
   x="344.45401"
   y="256.34"
   width="7.553"
   height="41.103001"
   id="rect114"
   style="fill:#0847cd" />
	</g>
	<g
   id="g120">
		<rect
   x="344.45401"
   y="212.687"
   width="7.553"
   height="41.103001"
   id="rect118"
   style="fill:#051f6b" />
	</g>
</g>
</svg>